# xmcd CD database file
#
# Track frame offsets:
#	150
#	11265
#	22377
#	34205
#	47507
#	59702
#	73657
#	84785
#	96175
#	109170
#	121000
#	133862
#	147545
#	158047
#	170482
#	182935
#	194467
#	205935
#	216145
#	227630
#	238145
#	251132
#	265930
#	277885
#	290745
#	302912
#
# Disc length: 4213 seconds
#
# Revision: 0
# Processed by: cddbd v1.4PL0 Copyright (c) Steve Scherf et al.
# Submitted via: CDex 1.50beta10
#
DISCID=8c10731a
DTITLE=Tommy Duncan - Texas Moon
DYEAR=1996
DGENRE=Country
TTITLE0=I'm Thru Wastin' Time On You
TTITLE1=Take Me Back To Tulsa
TTITLE2=Worried Over You
TTITLE3=Time Changes Everything
TTITLE4=September
TTITLE5=Gamblin' Polka Dot Blues
TTITLE6=You Put Me On My Feet (When You Took Her Off My Hands)
TTITLE7=Just A Plain Old Country Boy
TTITLE8=In The Jailhouse Now
TTITLE9=Chattanoogie Shoe Shine Boy
TTITLE10=I Don't Believe You're Mine Any More
TTITLE11=Never No' Mo' Blues
TTITLE12=Texas Moon
TTITLE13=Just A Little Bit Jealous
TTITLE14=We Got Good Business
TTITLE15=Please Come Back Home
TTITLE16=High Country
TTITLE17=All Star Boogie
TTITLE18=There's Not A Cow In Texas (If You're Not The One I Love)
TTITLE19=See Who's Sorry Now
TTITLE20=Sick, Sober, And Sorry
TTITLE21=Mississippi River Blues
TTITLE22=Wrong Road Home Blues
TTITLE23=Sweet Mama, Hurry Home Or I'll Be Gone
TTITLE24=My Sweet Wildflower
TTITLE25=I'm Suing You
EXTD=YEAR: 1996
EXTT0=
EXTT1=
EXTT2=
EXTT3=
EXTT4=
EXTT5=
EXTT6=
EXTT7=
EXTT8=
EXTT9=
EXTT10=
EXTT11=
EXTT12=
EXTT13=
EXTT14=
EXTT15=
EXTT16=
EXTT17=
EXTT18=
EXTT19=
EXTT20=
EXTT21=
EXTT22=
EXTT23=
EXTT24=
EXTT25=
PLAYORDER=
